# MagicaVoxel @ Ephtracy

# group
o barita

# material
mtllib anubis_voxB-0-barita.mtl
usemtl palette

# normals
vn -1 0 0
vn 1 0 0
vn 0 0 1
vn 0 0 -1
vn 0 -1 0
vn 0 1 0

# texcoords
vt 0.0214844 0.5
vt 0.0253906 0.5
vt 0.0292969 0.5
vt 0.0332031 0.5

# verts
v 0.3 2.5 -0.4
v 0.3 2.5 -0.5
v 0.3 2.5 -0.7
v 0.3 2.5 -0.9
v 0.3 2.5 -1.1
v 0.3 2.5 -1.2
v 0.3 2.6 -0.4
v 0.3 2.6 -0.5
v 0.3 2.6 -0.7
v 0.3 2.6 -0.9
v 0.3 2.6 -1.1
v 0.3 2.6 -1.2
v 0.3 2.8 -0.4
v 0.3 2.8 -0.5
v 0.3 2.8 -1.1
v 0.3 2.8 -1.2
v 0.3 2.9 -0.4
v 0.3 2.9 -0.5
v 0.3 2.9 -1.1
v 0.3 2.9 -1.2
v 0.4 0 -0.7
v 0.4 0 -0.9
v 0.4 0.1 -0.7
v 0.4 0.1 -0.9
v 0.4 0.3 -0.7
v 0.4 0.3 -0.9
v 0.4 0.5 -0.7
v 0.4 0.5 -0.9
v 0.4 0.7 -0.7
v 0.4 0.7 -0.9
v 0.4 1.6 -0.7
v 0.4 1.6 -0.9
v 0.4 1.8 -0.7
v 0.4 1.8 -0.9
v 0.4 2 -0.7
v 0.4 2 -0.9
v 0.4 2.2 -0.7
v 0.4 2.2 -0.9
v 0.4 2.4 -0.6
v 0.4 2.4 -0.7
v 0.4 2.4 -0.9
v 0.4 2.4 -1
v 0.4 2.5 -0.7
v 0.4 2.5 -0.9
v 0.4 2.6 -0.4
v 0.4 2.6 -0.5
v 0.4 2.6 -0.6
v 0.4 2.6 -0.7
v 0.4 2.6 -0.9
v 0.4 2.6 -1
v 0.4 2.6 -1.1
v 0.4 2.6 -1.2
v 0.4 2.7 -0.6
v 0.4 2.7 -0.7
v 0.4 2.7 -0.9
v 0.4 2.7 -1
v 0.4 2.8 -0.4
v 0.4 2.8 -0.5
v 0.4 2.8 -0.7
v 0.4 2.8 -0.9
v 0.4 2.8 -1.1
v 0.4 2.8 -1.2
v 0.4 2.9 -0.5
v 0.4 2.9 -1.1
v 0.4 3.1 -0.7
v 0.4 3.1 -0.9
v 0.4 3.2 -0.6
v 0.4 3.2 -0.7
v 0.4 3.2 -0.9
v 0.4 3.2 -1
v 0.4 3.3 -0.5
v 0.4 3.3 -0.6
v 0.4 3.3 -0.7
v 0.4 3.3 -0.9
v 0.4 3.3 -1
v 0.4 3.3 -1.1
v 0.4 3.4 -0.6
v 0.4 3.4 -0.7
v 0.4 3.4 -0.9
v 0.4 3.4 -1
v 0.4 3.5 -0.7
v 0.4 3.5 -0.9
v 0.6 0 -0.7
v 0.6 0 -0.9
v 0.6 0.1 -0.7
v 0.6 0.1 -0.9
v 0.6 0.3 -0.7
v 0.6 0.3 -0.9
v 0.6 0.5 -0.7
v 0.6 0.5 -0.9
v 0.6 0.7 -0.7
v 0.6 0.7 -0.9
v 0.6 1.6 -0.7
v 0.6 1.6 -0.9
v 0.6 1.8 -0.7
v 0.6 1.8 -0.9
v 0.6 2 -0.7
v 0.6 2 -0.9
v 0.6 2.2 -0.7
v 0.6 2.2 -0.9
v 0.6 2.4 -0.6
v 0.6 2.4 -0.7
v 0.6 2.4 -0.9
v 0.6 2.4 -1
v 0.6 2.5 -0.7
v 0.6 2.5 -0.9
v 0.6 2.6 -0.4
v 0.6 2.6 -0.5
v 0.6 2.6 -0.6
v 0.6 2.6 -0.7
v 0.6 2.6 -0.9
v 0.6 2.6 -1
v 0.6 2.6 -1.1
v 0.6 2.6 -1.2
v 0.6 2.7 -0.6
v 0.6 2.7 -0.7
v 0.6 2.7 -0.9
v 0.6 2.7 -1
v 0.6 2.8 -0.4
v 0.6 2.8 -0.5
v 0.6 2.8 -0.7
v 0.6 2.8 -0.9
v 0.6 2.8 -1.1
v 0.6 2.8 -1.2
v 0.6 2.9 -0.5
v 0.6 2.9 -1.1
v 0.6 3.1 -0.7
v 0.6 3.1 -0.9
v 0.6 3.2 -0.6
v 0.6 3.2 -0.7
v 0.6 3.2 -0.9
v 0.6 3.2 -1
v 0.6 3.3 -0.5
v 0.6 3.3 -0.6
v 0.6 3.3 -0.7
v 0.6 3.3 -0.9
v 0.6 3.3 -1
v 0.6 3.3 -1.1
v 0.6 3.4 -0.6
v 0.6 3.4 -0.7
v 0.6 3.4 -0.9
v 0.6 3.4 -1
v 0.6 3.5 -0.7
v 0.6 3.5 -0.9
v 0.7 2.5 -0.4
v 0.7 2.5 -0.5
v 0.7 2.5 -0.7
v 0.7 2.5 -0.9
v 0.7 2.5 -1.1
v 0.7 2.5 -1.2
v 0.7 2.6 -0.4
v 0.7 2.6 -0.5
v 0.7 2.6 -0.7
v 0.7 2.6 -0.9
v 0.7 2.6 -1.1
v 0.7 2.6 -1.2
v 0.7 2.8 -0.4
v 0.7 2.8 -0.5
v 0.7 2.8 -1.1
v 0.7 2.8 -1.2
v 0.7 2.9 -0.4
v 0.7 2.9 -0.5
v 0.7 2.9 -1.1
v 0.7 2.9 -1.2
v 0.3 2.5 -0.4
v 0.3 2.6 -0.4
v 0.3 2.8 -0.4
v 0.3 2.9 -0.4
v 0.4 2.6 -0.4
v 0.4 2.8 -0.4
v 0.6 2.6 -0.4
v 0.6 2.8 -0.4
v 0.7 2.5 -0.4
v 0.7 2.6 -0.4
v 0.7 2.8 -0.4
v 0.7 2.9 -0.4
v 0.4 2.9 -0.5
v 0.4 3.3 -0.5
v 0.6 2.9 -0.5
v 0.6 3.3 -0.5
v 0.4 2.4 -0.6
v 0.4 2.6 -0.6
v 0.4 3.3 -0.6
v 0.4 3.4 -0.6
v 0.6 2.4 -0.6
v 0.6 2.6 -0.6
v 0.6 3.3 -0.6
v 0.6 3.4 -0.6
v 0.3 2.5 -0.7
v 0.3 2.6 -0.7
v 0.4 0 -0.7
v 0.4 0.1 -0.7
v 0.4 0.3 -0.7
v 0.4 0.5 -0.7
v 0.4 0.7 -0.7
v 0.4 1.6 -0.7
v 0.4 1.8 -0.7
v 0.4 2 -0.7
v 0.4 2.2 -0.7
v 0.4 2.4 -0.7
v 0.4 2.5 -0.7
v 0.4 2.6 -0.7
v 0.4 2.8 -0.7
v 0.4 3.1 -0.7
v 0.4 3.4 -0.7
v 0.4 3.5 -0.7
v 0.6 0 -0.7
v 0.6 0.1 -0.7
v 0.6 0.3 -0.7
v 0.6 0.5 -0.7
v 0.6 0.7 -0.7
v 0.6 1.6 -0.7
v 0.6 1.8 -0.7
v 0.6 2 -0.7
v 0.6 2.2 -0.7
v 0.6 2.4 -0.7
v 0.6 2.5 -0.7
v 0.6 2.6 -0.7
v 0.6 2.8 -0.7
v 0.6 3.1 -0.7
v 0.6 3.4 -0.7
v 0.6 3.5 -0.7
v 0.7 2.5 -0.7
v 0.7 2.6 -0.7
v 0.4 2.6 -0.9
v 0.4 2.7 -0.9
v 0.4 3.2 -0.9
v 0.4 3.3 -0.9
v 0.6 2.6 -0.9
v 0.6 2.7 -0.9
v 0.6 3.2 -0.9
v 0.6 3.3 -0.9
v 0.4 2.7 -1
v 0.4 3.2 -1
v 0.6 2.7 -1
v 0.6 3.2 -1
v 0.3 2.5 -1.1
v 0.3 2.6 -1.1
v 0.3 2.8 -1.1
v 0.3 2.9 -1.1
v 0.4 2.6 -1.1
v 0.4 2.8 -1.1
v 0.4 2.9 -1.1
v 0.6 2.6 -1.1
v 0.6 2.8 -1.1
v 0.6 2.9 -1.1
v 0.7 2.5 -1.1
v 0.7 2.6 -1.1
v 0.7 2.8 -1.1
v 0.7 2.9 -1.1
v 0.3 2.5 -0.5
v 0.3 2.6 -0.5
v 0.3 2.8 -0.5
v 0.3 2.9 -0.5
v 0.4 2.6 -0.5
v 0.4 2.8 -0.5
v 0.4 2.9 -0.5
v 0.6 2.6 -0.5
v 0.6 2.8 -0.5
v 0.6 2.9 -0.5
v 0.7 2.5 -0.5
v 0.7 2.6 -0.5
v 0.7 2.8 -0.5
v 0.7 2.9 -0.5
v 0.4 2.7 -0.6
v 0.4 3.2 -0.6
v 0.6 2.7 -0.6
v 0.6 3.2 -0.6
v 0.4 2.6 -0.7
v 0.4 2.7 -0.7
v 0.4 3.2 -0.7
v 0.4 3.3 -0.7
v 0.6 2.6 -0.7
v 0.6 2.7 -0.7
v 0.6 3.2 -0.7
v 0.6 3.3 -0.7
v 0.3 2.5 -0.9
v 0.3 2.6 -0.9
v 0.4 0 -0.9
v 0.4 0.1 -0.9
v 0.4 0.3 -0.9
v 0.4 0.5 -0.9
v 0.4 0.7 -0.9
v 0.4 1.6 -0.9
v 0.4 1.8 -0.9
v 0.4 2 -0.9
v 0.4 2.2 -0.9
v 0.4 2.4 -0.9
v 0.4 2.5 -0.9
v 0.4 2.6 -0.9
v 0.4 2.8 -0.9
v 0.4 3.1 -0.9
v 0.4 3.4 -0.9
v 0.4 3.5 -0.9
v 0.6 0 -0.9
v 0.6 0.1 -0.9
v 0.6 0.3 -0.9
v 0.6 0.5 -0.9
v 0.6 0.7 -0.9
v 0.6 1.6 -0.9
v 0.6 1.8 -0.9
v 0.6 2 -0.9
v 0.6 2.2 -0.9
v 0.6 2.4 -0.9
v 0.6 2.5 -0.9
v 0.6 2.6 -0.9
v 0.6 2.8 -0.9
v 0.6 3.1 -0.9
v 0.6 3.4 -0.9
v 0.6 3.5 -0.9
v 0.7 2.5 -0.9
v 0.7 2.6 -0.9
v 0.4 2.4 -1
v 0.4 2.6 -1
v 0.4 3.3 -1
v 0.4 3.4 -1
v 0.6 2.4 -1
v 0.6 2.6 -1
v 0.6 3.3 -1
v 0.6 3.4 -1
v 0.4 2.9 -1.1
v 0.4 3.3 -1.1
v 0.6 2.9 -1.1
v 0.6 3.3 -1.1
v 0.3 2.5 -1.2
v 0.3 2.6 -1.2
v 0.3 2.8 -1.2
v 0.3 2.9 -1.2
v 0.4 2.6 -1.2
v 0.4 2.8 -1.2
v 0.6 2.6 -1.2
v 0.6 2.8 -1.2
v 0.7 2.5 -1.2
v 0.7 2.6 -1.2
v 0.7 2.8 -1.2
v 0.7 2.9 -1.2
v 0.4 0 -0.7
v 0.6 0 -0.7
v 0.4 0 -0.9
v 0.6 0 -0.9
v 0.4 2.4 -0.6
v 0.6 2.4 -0.6
v 0.4 2.4 -0.7
v 0.6 2.4 -0.7
v 0.4 2.4 -0.9
v 0.6 2.4 -0.9
v 0.4 2.4 -1
v 0.6 2.4 -1
v 0.3 2.5 -0.4
v 0.7 2.5 -0.4
v 0.3 2.5 -0.5
v 0.7 2.5 -0.5
v 0.3 2.5 -0.7
v 0.4 2.5 -0.7
v 0.6 2.5 -0.7
v 0.7 2.5 -0.7
v 0.3 2.5 -0.9
v 0.4 2.5 -0.9
v 0.6 2.5 -0.9
v 0.7 2.5 -0.9
v 0.3 2.5 -1.1
v 0.7 2.5 -1.1
v 0.3 2.5 -1.2
v 0.7 2.5 -1.2
v 0.4 2.6 -0.5
v 0.6 2.6 -0.5
v 0.4 2.6 -0.6
v 0.6 2.6 -0.6
v 0.4 2.6 -1
v 0.6 2.6 -1
v 0.4 2.6 -1.1
v 0.6 2.6 -1.1
v 0.3 2.8 -0.4
v 0.4 2.8 -0.4
v 0.6 2.8 -0.4
v 0.7 2.8 -0.4
v 0.3 2.8 -0.5
v 0.4 2.8 -0.5
v 0.6 2.8 -0.5
v 0.7 2.8 -0.5
v 0.4 2.8 -0.7
v 0.6 2.8 -0.7
v 0.4 2.8 -0.9
v 0.6 2.8 -0.9
v 0.3 2.8 -1.1
v 0.4 2.8 -1.1
v 0.6 2.8 -1.1
v 0.7 2.8 -1.1
v 0.3 2.8 -1.2
v 0.4 2.8 -1.2
v 0.6 2.8 -1.2
v 0.7 2.8 -1.2
v 0.4 3.2 -0.6
v 0.6 3.2 -0.6
v 0.4 3.2 -0.7
v 0.6 3.2 -0.7
v 0.4 3.2 -0.9
v 0.6 3.2 -0.9
v 0.4 3.2 -1
v 0.6 3.2 -1
v 0.4 3.3 -0.7
v 0.6 3.3 -0.7
v 0.4 3.3 -0.9
v 0.6 3.3 -0.9
v 0.3 2.6 -0.4
v 0.4 2.6 -0.4
v 0.6 2.6 -0.4
v 0.7 2.6 -0.4
v 0.3 2.6 -0.5
v 0.4 2.6 -0.5
v 0.6 2.6 -0.5
v 0.7 2.6 -0.5
v 0.3 2.6 -0.7
v 0.4 2.6 -0.7
v 0.6 2.6 -0.7
v 0.7 2.6 -0.7
v 0.3 2.6 -0.9
v 0.4 2.6 -0.9
v 0.6 2.6 -0.9
v 0.7 2.6 -0.9
v 0.3 2.6 -1.1
v 0.4 2.6 -1.1
v 0.6 2.6 -1.1
v 0.7 2.6 -1.1
v 0.3 2.6 -1.2
v 0.4 2.6 -1.2
v 0.6 2.6 -1.2
v 0.7 2.6 -1.2
v 0.4 2.7 -0.6
v 0.6 2.7 -0.6
v 0.4 2.7 -0.7
v 0.6 2.7 -0.7
v 0.4 2.7 -0.9
v 0.6 2.7 -0.9
v 0.4 2.7 -1
v 0.6 2.7 -1
v 0.3 2.9 -0.4
v 0.7 2.9 -0.4
v 0.3 2.9 -0.5
v 0.4 2.9 -0.5
v 0.6 2.9 -0.5
v 0.7 2.9 -0.5
v 0.3 2.9 -1.1
v 0.4 2.9 -1.1
v 0.6 2.9 -1.1
v 0.7 2.9 -1.1
v 0.3 2.9 -1.2
v 0.7 2.9 -1.2
v 0.4 3.1 -0.7
v 0.6 3.1 -0.7
v 0.4 3.1 -0.9
v 0.6 3.1 -0.9
v 0.4 3.3 -0.5
v 0.6 3.3 -0.5
v 0.4 3.3 -0.6
v 0.6 3.3 -0.6
v 0.4 3.3 -1
v 0.6 3.3 -1
v 0.4 3.3 -1.1
v 0.6 3.3 -1.1
v 0.4 3.4 -0.6
v 0.6 3.4 -0.6
v 0.4 3.4 -0.7
v 0.6 3.4 -0.7
v 0.4 3.4 -0.9
v 0.6 3.4 -0.9
v 0.4 3.4 -1
v 0.6 3.4 -1
v 0.4 3.5 -0.7
v 0.6 3.5 -0.7
v 0.4 3.5 -0.9
v 0.6 3.5 -0.9

# faces
f 7/2/1 2/2/1 1/2/1
f 8/2/1 2/2/1 7/2/1
f 9/2/1 4/2/1 3/2/1
f 10/2/1 4/2/1 9/2/1
f 11/2/1 6/2/1 5/2/1
f 12/2/1 6/2/1 11/2/1
f 17/2/1 14/2/1 13/2/1
f 18/2/1 14/2/1 17/2/1
f 19/2/1 16/2/1 15/2/1
f 20/2/1 16/2/1 19/2/1
f 23/3/1 22/3/1 21/3/1
f 24/3/1 22/3/1 23/3/1
f 25/2/1 24/2/1 23/2/1
f 26/2/1 24/2/1 25/2/1
f 27/3/1 26/3/1 25/3/1
f 28/3/1 26/3/1 27/3/1
f 29/2/1 28/2/1 27/2/1
f 30/2/1 28/2/1 29/2/1
f 31/1/1 30/1/1 29/1/1
f 32/1/1 30/1/1 31/1/1
f 33/2/1 32/2/1 31/2/1
f 34/2/1 32/2/1 33/2/1
f 35/3/1 34/3/1 33/3/1
f 36/3/1 34/3/1 35/3/1
f 37/2/1 36/2/1 35/2/1
f 38/2/1 36/2/1 37/2/1
f 40/3/1 38/3/1 37/3/1
f 41/3/1 38/3/1 40/3/1
f 43/2/1 41/2/1 40/2/1
f 43/2/1 42/2/1 41/2/1
f 43/2/1 40/2/1 39/2/1
f 44/2/1 42/2/1 43/2/1
f 47/2/1 43/2/1 39/2/1
f 48/2/1 43/2/1 47/2/1
f 49/2/1 42/2/1 44/2/1
f 50/2/1 42/2/1 49/2/1
f 53/2/1 46/2/1 45/2/1
f 53/2/1 48/2/1 47/2/1
f 53/2/1 47/2/1 46/2/1
f 54/2/1 48/2/1 53/2/1
f 55/2/1 52/2/1 51/2/1
f 55/2/1 51/2/1 50/2/1
f 55/2/1 50/2/1 49/2/1
f 56/2/1 52/2/1 55/2/1
f 57/2/1 53/2/1 45/2/1
f 58/2/1 53/2/1 57/2/1
f 61/2/1 52/2/1 56/2/1
f 62/2/1 52/2/1 61/2/1
f 63/2/1 53/2/1 58/2/1
f 64/2/1 61/2/1 56/2/1
f 65/4/1 60/4/1 59/4/1
f 66/4/1 60/4/1 65/4/1
f 67/2/1 53/2/1 63/2/1
f 70/2/1 64/2/1 56/2/1
f 71/2/1 68/2/1 67/2/1
f 71/2/1 67/2/1 63/2/1
f 72/2/1 68/2/1 71/2/1
f 73/2/1 68/2/1 72/2/1
f 74/2/1 70/2/1 69/2/1
f 75/2/1 64/2/1 70/2/1
f 75/2/1 70/2/1 74/2/1
f 76/2/1 64/2/1 75/2/1
f 77/2/1 73/2/1 72/2/1
f 77/2/1 74/2/1 73/2/1
f 77/2/1 75/2/1 74/2/1
f 78/2/1 75/2/1 77/2/1
f 79/2/1 75/2/1 78/2/1
f 80/2/1 75/2/1 79/2/1
f 81/2/1 79/2/1 78/2/1
f 82/2/1 79/2/1 81/2/1
f 83/3/2 84/3/2 85/3/2
f 85/3/2 84/3/2 86/3/2
f 85/2/2 86/2/2 87/2/2
f 87/2/2 86/2/2 88/2/2
f 87/3/2 88/3/2 89/3/2
f 89/3/2 88/3/2 90/3/2
f 89/2/2 90/2/2 91/2/2
f 91/2/2 90/2/2 92/2/2
f 91/1/2 92/1/2 93/1/2
f 93/1/2 92/1/2 94/1/2
f 93/2/2 94/2/2 95/2/2
f 95/2/2 94/2/2 96/2/2
f 95/3/2 96/3/2 97/3/2
f 97/3/2 96/3/2 98/3/2
f 97/2/2 98/2/2 99/2/2
f 99/2/2 98/2/2 100/2/2
f 99/3/2 100/3/2 102/3/2
f 102/3/2 100/3/2 103/3/2
f 102/2/2 103/2/2 105/2/2
f 103/2/2 104/2/2 105/2/2
f 101/2/2 102/2/2 105/2/2
f 105/2/2 104/2/2 106/2/2
f 101/2/2 105/2/2 109/2/2
f 109/2/2 105/2/2 110/2/2
f 106/2/2 104/2/2 111/2/2
f 111/2/2 104/2/2 112/2/2
f 107/2/2 108/2/2 115/2/2
f 109/2/2 110/2/2 115/2/2
f 108/2/2 109/2/2 115/2/2
f 115/2/2 110/2/2 116/2/2
f 113/2/2 114/2/2 117/2/2
f 112/2/2 113/2/2 117/2/2
f 111/2/2 112/2/2 117/2/2
f 117/2/2 114/2/2 118/2/2
f 107/2/2 115/2/2 119/2/2
f 119/2/2 115/2/2 120/2/2
f 118/2/2 114/2/2 123/2/2
f 123/2/2 114/2/2 124/2/2
f 120/2/2 115/2/2 125/2/2
f 118/2/2 123/2/2 126/2/2
f 121/4/2 122/4/2 127/4/2
f 127/4/2 122/4/2 128/4/2
f 125/2/2 115/2/2 129/2/2
f 118/2/2 126/2/2 132/2/2
f 129/2/2 130/2/2 133/2/2
f 125/2/2 129/2/2 133/2/2
f 133/2/2 130/2/2 134/2/2
f 134/2/2 130/2/2 135/2/2
f 131/2/2 132/2/2 136/2/2
f 132/2/2 126/2/2 137/2/2
f 136/2/2 132/2/2 137/2/2
f 137/2/2 126/2/2 138/2/2
f 134/2/2 135/2/2 139/2/2
f 135/2/2 136/2/2 139/2/2
f 136/2/2 137/2/2 139/2/2
f 139/2/2 137/2/2 140/2/2
f 140/2/2 137/2/2 141/2/2
f 141/2/2 137/2/2 142/2/2
f 140/2/2 141/2/2 143/2/2
f 143/2/2 141/2/2 144/2/2
f 145/2/2 146/2/2 151/2/2
f 151/2/2 146/2/2 152/2/2
f 147/2/2 148/2/2 153/2/2
f 153/2/2 148/2/2 154/2/2
f 149/2/2 150/2/2 155/2/2
f 155/2/2 150/2/2 156/2/2
f 157/2/2 158/2/2 161/2/2
f 161/2/2 158/2/2 162/2/2
f 159/2/2 160/2/2 163/2/2
f 163/2/2 160/2/2 164/2/2
f 169/2/3 166/2/3 165/2/3
f 170/2/3 168/2/3 167/2/3
f 171/2/3 169/2/3 165/2/3
f 171/2/3 170/2/3 169/2/3
f 172/2/3 168/2/3 170/2/3
f 172/2/3 170/2/3 171/2/3
f 173/2/3 171/2/3 165/2/3
f 174/2/3 171/2/3 173/2/3
f 175/2/3 168/2/3 172/2/3
f 176/2/3 168/2/3 175/2/3
f 179/2/3 178/2/3 177/2/3
f 180/2/3 178/2/3 179/2/3
f 185/2/3 182/2/3 181/2/3
f 186/2/3 182/2/3 185/2/3
f 187/2/3 184/2/3 183/2/3
f 188/2/3 184/2/3 187/2/3
f 201/2/3 190/2/3 189/2/3
f 202/2/3 190/2/3 201/2/3
f 207/3/3 192/3/3 191/3/3
f 208/2/3 193/2/3 192/2/3
f 208/3/3 192/3/3 207/3/3
f 209/3/3 194/3/3 193/3/3
f 209/2/3 193/2/3 208/2/3
f 210/2/3 195/2/3 194/2/3
f 210/3/3 194/3/3 209/3/3
f 211/1/3 196/1/3 195/1/3
f 211/2/3 195/2/3 210/2/3
f 212/2/3 197/2/3 196/2/3
f 212/1/3 196/1/3 211/1/3
f 213/3/3 198/3/3 197/3/3
f 213/2/3 197/2/3 212/2/3
f 214/2/3 199/2/3 198/2/3
f 214/3/3 198/3/3 213/3/3
f 215/3/3 200/3/3 199/3/3
f 215/2/3 199/2/3 214/2/3
f 216/3/3 200/3/3 215/3/3
f 219/4/3 204/4/3 203/4/3
f 220/4/3 204/4/3 219/4/3
f 221/2/3 206/2/3 205/2/3
f 222/2/3 206/2/3 221/2/3
f 223/2/3 218/2/3 217/2/3
f 224/2/3 218/2/3 223/2/3
f 229/2/3 226/2/3 225/2/3
f 230/2/3 226/2/3 229/2/3
f 231/2/3 228/2/3 227/2/3
f 232/2/3 228/2/3 231/2/3
f 235/2/3 234/2/3 233/2/3
f 236/2/3 234/2/3 235/2/3
f 241/2/3 238/2/3 237/2/3
f 242/2/3 240/2/3 239/2/3
f 243/2/3 240/2/3 242/2/3
f 244/2/3 241/2/3 237/2/3
f 247/2/3 244/2/3 237/2/3
f 248/2/3 244/2/3 247/2/3
f 249/2/3 246/2/3 245/2/3
f 250/2/3 246/2/3 249/2/3
f 251/2/4 252/2/4 255/2/4
f 253/2/4 254/2/4 256/2/4
f 256/2/4 254/2/4 257/2/4
f 251/2/4 255/2/4 258/2/4
f 251/2/4 258/2/4 261/2/4
f 261/2/4 258/2/4 262/2/4
f 259/2/4 260/2/4 263/2/4
f 263/2/4 260/2/4 264/2/4
f 265/2/4 266/2/4 267/2/4
f 267/2/4 266/2/4 268/2/4
f 269/2/4 270/2/4 273/2/4
f 273/2/4 270/2/4 274/2/4
f 271/2/4 272/2/4 275/2/4
f 275/2/4 272/2/4 276/2/4
f 277/2/4 278/2/4 289/2/4
f 289/2/4 278/2/4 290/2/4
f 279/3/4 280/3/4 295/3/4
f 280/2/4 281/2/4 296/2/4
f 295/3/4 280/3/4 296/3/4
f 281/3/4 282/3/4 297/3/4
f 296/2/4 281/2/4 297/2/4
f 282/2/4 283/2/4 298/2/4
f 297/3/4 282/3/4 298/3/4
f 283/1/4 284/1/4 299/1/4
f 298/2/4 283/2/4 299/2/4
f 284/2/4 285/2/4 300/2/4
f 299/1/4 284/1/4 300/1/4
f 285/3/4 286/3/4 301/3/4
f 300/2/4 285/2/4 301/2/4
f 286/2/4 287/2/4 302/2/4
f 301/3/4 286/3/4 302/3/4
f 287/3/4 288/3/4 303/3/4
f 302/2/4 287/2/4 303/2/4
f 303/3/4 288/3/4 304/3/4
f 291/4/4 292/4/4 307/4/4
f 307/4/4 292/4/4 308/4/4
f 293/2/4 294/2/4 309/2/4
f 309/2/4 294/2/4 310/2/4
f 305/2/4 306/2/4 311/2/4
f 311/2/4 306/2/4 312/2/4
f 313/2/4 314/2/4 317/2/4
f 317/2/4 314/2/4 318/2/4
f 315/2/4 316/2/4 319/2/4
f 319/2/4 316/2/4 320/2/4
f 321/2/4 322/2/4 323/2/4
f 323/2/4 322/2/4 324/2/4
f 325/2/4 326/2/4 329/2/4
f 327/2/4 328/2/4 330/2/4
f 325/2/4 329/2/4 331/2/4
f 329/2/4 330/2/4 331/2/4
f 330/2/4 328/2/4 332/2/4
f 331/2/4 330/2/4 332/2/4
f 325/2/4 331/2/4 333/2/4
f 333/2/4 331/2/4 334/2/4
f 332/2/4 328/2/4 335/2/4
f 335/2/4 328/2/4 336/2/4
f 339/3/5 338/3/5 337/3/5
f 340/3/5 338/3/5 339/3/5
f 343/2/5 342/2/5 341/2/5
f 344/2/5 342/2/5 343/2/5
f 347/2/5 346/2/5 345/2/5
f 348/2/5 346/2/5 347/2/5
f 351/2/5 350/2/5 349/2/5
f 352/2/5 350/2/5 351/2/5
f 357/2/5 354/2/5 353/2/5
f 358/2/5 354/2/5 357/2/5
f 359/2/5 356/2/5 355/2/5
f 360/2/5 356/2/5 359/2/5
f 363/2/5 362/2/5 361/2/5
f 364/2/5 362/2/5 363/2/5
f 367/2/5 366/2/5 365/2/5
f 368/2/5 366/2/5 367/2/5
f 371/2/5 370/2/5 369/2/5
f 372/2/5 370/2/5 371/2/5
f 377/2/5 374/2/5 373/2/5
f 378/2/5 374/2/5 377/2/5
f 379/2/5 376/2/5 375/2/5
f 380/2/5 376/2/5 379/2/5
f 383/4/5 382/4/5 381/4/5
f 384/4/5 382/4/5 383/4/5
f 389/2/5 386/2/5 385/2/5
f 390/2/5 386/2/5 389/2/5
f 391/2/5 388/2/5 387/2/5
f 392/2/5 388/2/5 391/2/5
f 395/2/5 394/2/5 393/2/5
f 396/2/5 394/2/5 395/2/5
f 399/2/5 398/2/5 397/2/5
f 400/2/5 398/2/5 399/2/5
f 403/2/5 402/2/5 401/2/5
f 404/2/5 402/2/5 403/2/5
f 405/2/6 406/2/6 409/2/6
f 409/2/6 406/2/6 410/2/6
f 407/2/6 408/2/6 411/2/6
f 411/2/6 408/2/6 412/2/6
f 413/2/6 414/2/6 417/2/6
f 415/2/6 416/2/6 417/2/6
f 414/2/6 415/2/6 417/2/6
f 417/2/6 416/2/6 418/2/6
f 418/2/6 416/2/6 419/2/6
f 419/2/6 416/2/6 420/2/6
f 421/2/6 422/2/6 425/2/6
f 425/2/6 422/2/6 426/2/6
f 423/2/6 424/2/6 427/2/6
f 427/2/6 424/2/6 428/2/6
f 429/2/6 430/2/6 431/2/6
f 431/2/6 430/2/6 432/2/6
f 433/2/6 434/2/6 435/2/6
f 435/2/6 434/2/6 436/2/6
f 437/2/6 438/2/6 439/2/6
f 439/2/6 438/2/6 440/2/6
f 440/2/6 438/2/6 441/2/6
f 441/2/6 438/2/6 442/2/6
f 443/2/6 444/2/6 447/2/6
f 445/2/6 446/2/6 447/2/6
f 444/2/6 445/2/6 447/2/6
f 447/2/6 446/2/6 448/2/6
f 449/4/6 450/4/6 451/4/6
f 451/4/6 450/4/6 452/4/6
f 453/2/6 454/2/6 455/2/6
f 455/2/6 454/2/6 456/2/6
f 457/2/6 458/2/6 459/2/6
f 459/2/6 458/2/6 460/2/6
f 461/2/6 462/2/6 463/2/6
f 463/2/6 462/2/6 464/2/6
f 465/2/6 466/2/6 467/2/6
f 467/2/6 466/2/6 468/2/6
f 469/2/6 470/2/6 471/2/6
f 471/2/6 470/2/6 472/2/6
