# MagicaVoxel @ Ephtracy

# group
o armR

# material
mtllib anubis_voxB-4-armR.mtl
usemtl palette

# normals
vn -1 0 0
vn 1 0 0
vn 0 0 1
vn 0 0 -1
vn 0 -1 0
vn 0 1 0

# texcoords
vt 0.00976563 0.5
vt 0.0136719 0.5
vt 0.0175781 0.5
vt 0.0214844 0.5
vt 0.0253906 0.5

# verts
v 0.2 1.6 0.3
v 0.2 1.6 0.2
v 0.2 1.6 -2.98023e-08
v 0.2 1.6 -0.1
v 0.2 1.8 0.3
v 0.2 1.8 0.2
v 0.2 1.8 -2.98023e-08
v 0.2 1.8 -0.1
v 0.2 1.9 0.3
v 0.2 1.9 -2.98023e-08
v 0.3 0.9 -0.6
v 0.3 0.9 -0.7
v 0.3 0.9 -0.9
v 0.3 1 -0.6
v 0.3 1 -0.7
v 0.3 1.1 -0.6
v 0.3 1.1 -0.9
v 0.3 1.2 -0.6
v 0.3 1.2 -0.9
v 0.3 1.3 0.3
v 0.3 1.3 0.2
v 0.3 1.3 -2.98023e-08
v 0.3 1.3 -0.1
v 0.3 1.3 -0.6
v 0.3 1.3 -0.7
v 0.3 1.4 -0.6
v 0.3 1.4 -0.7
v 0.3 1.4 -0.9
v 0.3 1.6 0.3
v 0.3 1.6 0.2
v 0.3 1.6 -2.98023e-08
v 0.3 1.6 -0.1
v 0.4 0.9 -0.4
v 0.4 0.9 -0.5
v 0.4 0.9 -0.6
v 0.4 0.9 -0.9
v 0.4 0.9 -1
v 0.4 1 -2.98023e-08
v 0.4 1 -0.4
v 0.4 1 -0.6
v 0.4 1.1 0.2
v 0.4 1.1 -2.98023e-08
v 0.4 1.1 -0.6
v 0.4 1.1 -0.9
v 0.4 1.1 -1
v 0.4 1.2 -0.6
v 0.4 1.2 -0.9
v 0.4 1.2 -1
v 0.4 1.3 0.2
v 0.4 1.3 -2.98023e-08
v 0.4 1.3 -0.1
v 0.4 1.3 -0.4
v 0.4 1.3 -0.6
v 0.4 1.4 -0.4
v 0.4 1.4 -0.5
v 0.4 1.4 -0.6
v 0.4 1.4 -0.9
v 0.4 1.4 -1
v 0.5 1 0.2
v 0.5 1 -2.98023e-08
v 0.5 1.1 0.3
v 0.5 1.1 0.2
v 0.5 1.1 -2.98023e-08
v 0.5 1.3 0.3
v 0.5 1.3 0.2
v 0.4 1.3 -2.98023e-08
v 0.4 1.3 -0.1
v 0.4 1.8 -2.98023e-08
v 0.4 1.8 -0.1
v 0.5 1.8 0.3
v 0.5 1.8 0.2
v 0.5 1.8 0.1
v 0.5 1.8 -2.98023e-08
v 0.5 1.9 0.3
v 0.5 1.9 0.2
v 0.5 1.9 0.1
v 0.5 1.9 -2.98023e-08
v 0.6 0.9 -0.4
v 0.6 0.9 -0.5
v 0.6 1 0.2
v 0.6 1 -2.98023e-08
v 0.6 1 -0.4
v 0.6 1 -0.5
v 0.6 1.1 0.3
v 0.6 1.1 0.2
v 0.6 1.1 -2.98023e-08
v 0.6 1.3 0.3
v 0.6 1.3 0.2
v 0.6 1.3 -0.4
v 0.6 1.3 -0.5
v 0.6 1.4 -0.4
v 0.6 1.4 -0.5
v 0.6 1.7 0.3
v 0.6 1.7 0.2
v 0.6 1.7 0.1
v 0.6 1.7 -2.98023e-08
v 0.6 1.8 0.3
v 0.6 1.8 0.2
v 0.6 1.8 0.1
v 0.6 1.8 -2.98023e-08
v 0.6 1.9 0.2
v 0.6 1.9 0.1
v 0.7 0.9 -0.5
v 0.7 0.9 -0.6
v 0.7 0.9 -0.9
v 0.7 0.9 -1
v 0.7 1 -2.98023e-08
v 0.7 1 -0.1
v 0.7 1 -0.4
v 0.7 1 -0.5
v 0.7 1 -0.6
v 0.7 1 -0.8
v 0.7 1.1 0.2
v 0.7 1.1 -2.98023e-08
v 0.7 1.1 -0.7
v 0.7 1.1 -0.8
v 0.7 1.1 -0.9
v 0.7 1.2 -0.7
v 0.7 1.2 -0.8
v 0.7 1.2 -0.9
v 0.7 1.3 0.3
v 0.7 1.3 0.2
v 0.7 1.3 -2.98023e-08
v 0.7 1.3 -0.1
v 0.7 1.3 -0.4
v 0.7 1.3 -0.5
v 0.7 1.3 -0.6
v 0.7 1.3 -0.8
v 0.7 1.4 0.3
v 0.7 1.4 0.2
v 0.7 1.4 0.1
v 0.7 1.4 -2.98023e-08
v 0.7 1.4 -0.5
v 0.7 1.4 -0.6
v 0.7 1.4 -0.9
v 0.7 1.4 -1
v 0.7 1.7 0.3
v 0.7 1.7 0.2
v 0.7 1.7 0.1
v 0.7 1.7 -2.98023e-08
v 0.7 1.8 0.2
v 0.7 1.8 0.1
v 0.2 1.6 0.3
v 0.2 1.8 0.3
v 0.2 1.9 0.3
v 0.3 1.3 0.3
v 0.3 1.6 0.3
v 0.4 1.3 0.3
v 0.4 1.8 0.3
v 0.5 1.1 0.3
v 0.5 1.3 0.3
v 0.5 1.8 0.3
v 0.5 1.9 0.3
v 0.6 1.1 0.3
v 0.6 1.3 0.3
v 0.6 1.4 0.3
v 0.6 1.7 0.3
v 0.6 1.8 0.3
v 0.7 1.3 0.3
v 0.7 1.4 0.3
v 0.7 1.7 0.3
v 0.4 1.1 0.2
v 0.4 1.3 0.2
v 0.5 1 0.2
v 0.5 1.1 0.2
v 0.5 1.3 0.2
v 0.5 1.8 0.2
v 0.5 1.9 0.2
v 0.6 1 0.2
v 0.6 1.1 0.2
v 0.6 1.3 0.2
v 0.6 1.7 0.2
v 0.6 1.8 0.2
v 0.6 1.9 0.2
v 0.7 1.1 0.2
v 0.7 1.3 0.2
v 0.7 1.7 0.2
v 0.7 1.8 0.2
v 0.4 1 -2.98023e-08
v 0.4 1.1 -2.98023e-08
v 0.5 1 -2.98023e-08
v 0.5 1.1 -2.98023e-08
v 0.6 1 -2.98023e-08
v 0.6 1.1 -2.98023e-08
v 0.7 1 -2.98023e-08
v 0.7 1.1 -2.98023e-08
v 0.4 0.9 -0.4
v 0.4 1 -0.4
v 0.4 1.3 -0.4
v 0.4 1.4 -0.4
v 0.6 0.9 -0.4
v 0.6 1 -0.4
v 0.6 1.3 -0.4
v 0.6 1.4 -0.4
v 0.6 0.9 -0.5
v 0.6 1 -0.5
v 0.6 1.3 -0.5
v 0.6 1.4 -0.5
v 0.7 0.9 -0.5
v 0.7 1 -0.5
v 0.7 1.3 -0.5
v 0.7 1.4 -0.5
v 0.3 0.9 -0.6
v 0.3 1 -0.6
v 0.3 1.1 -0.6
v 0.3 1.2 -0.6
v 0.3 1.3 -0.6
v 0.3 1.4 -0.6
v 0.4 0.9 -0.6
v 0.4 1 -0.6
v 0.4 1.1 -0.6
v 0.4 1.2 -0.6
v 0.4 1.3 -0.6
v 0.4 1.4 -0.6
v 0.5 1.8 0.1
v 0.5 1.9 0.1
v 0.6 1.7 0.1
v 0.6 1.8 0.1
v 0.6 1.9 0.1
v 0.7 1.7 0.1
v 0.7 1.8 0.1
v 0.2 1.8 -2.98023e-08
v 0.2 1.9 -2.98023e-08
v 0.4 1.3 -2.98023e-08
v 0.4 1.8 -2.98023e-08
v 0.5 1.8 -2.98023e-08
v 0.5 1.9 -2.98023e-08
v 0.6 1.4 -2.98023e-08
v 0.6 1.7 -2.98023e-08
v 0.6 1.8 -2.98023e-08
v 0.7 1.3 -2.98023e-08
v 0.7 1.4 -2.98023e-08
v 0.7 1.7 -2.98023e-08
v 0.2 1.6 -0.1
v 0.2 1.8 -0.1
v 0.3 1.3 -0.1
v 0.3 1.6 -0.1
v 0.4 1.3 -0.1
v 0.4 1.8 -0.1
v 0.3 0.9 -0.9
v 0.3 1.1 -0.9
v 0.3 1.2 -0.9
v 0.3 1.4 -0.9
v 0.4 0.9 -0.9
v 0.4 1.1 -0.9
v 0.4 1.2 -0.9
v 0.4 1.4 -0.9
v 0.4 0.9 -1
v 0.4 1.1 -1
v 0.4 1.2 -1
v 0.4 1.4 -1
v 0.6 0.9 -1
v 0.6 1.1 -1
v 0.6 1.2 -1
v 0.6 1.4 -1
v 0.7 0.9 -1
v 0.7 1.4 -1
v 0.4 0.9 -0.4
v 0.6 0.9 -0.4
v 0.4 0.9 -0.5
v 0.6 0.9 -0.5
v 0.7 0.9 -0.5
v 0.3 0.9 -0.6
v 0.4 0.9 -0.6
v 0.6 0.9 -0.6
v 0.7 0.9 -0.6
v 0.3 0.9 -0.7
v 0.4 0.9 -0.7
v 0.3 0.9 -0.9
v 0.4 0.9 -0.9
v 0.6 0.9 -0.9
v 0.7 0.9 -0.9
v 0.4 0.9 -1
v 0.6 0.9 -1
v 0.7 0.9 -1
v 0.5 1 0.2
v 0.6 1 0.2
v 0.4 1 -2.98023e-08
v 0.5 1 -2.98023e-08
v 0.6 1 -2.98023e-08
v 0.7 1 -2.98023e-08
v 0.6 1 -0.1
v 0.7 1 -0.1
v 0.4 1 -0.4
v 0.6 1 -0.4
v 0.7 1 -0.4
v 0.6 1 -0.5
v 0.7 1 -0.5
v 0.5 1.1 0.3
v 0.6 1.1 0.3
v 0.4 1.1 0.2
v 0.5 1.1 0.2
v 0.6 1.1 0.2
v 0.7 1.1 0.2
v 0.4 1.1 -2.98023e-08
v 0.5 1.1 -2.98023e-08
v 0.6 1.1 -2.98023e-08
v 0.7 1.1 -2.98023e-08
v 0.3 1.3 0.3
v 0.4 1.3 0.3
v 0.5 1.3 0.3
v 0.6 1.3 0.3
v 0.7 1.3 0.3
v 0.3 1.3 0.2
v 0.4 1.3 0.2
v 0.5 1.3 0.2
v 0.6 1.3 0.2
v 0.7 1.3 0.2
v 0.3 1.3 -2.98023e-08
v 0.4 1.3 -2.98023e-08
v 0.3 1.3 -0.1
v 0.4 1.3 -0.1
v 0.2 1.6 0.3
v 0.3 1.6 0.3
v 0.2 1.6 0.2
v 0.3 1.6 0.2
v 0.2 1.6 -2.98023e-08
v 0.3 1.6 -2.98023e-08
v 0.2 1.6 -0.1
v 0.3 1.6 -0.1
v 0.4 1.3 -2.98023e-08
v 0.7 1.3 -2.98023e-08
v 0.4 1.3 -0.1
v 0.6 1.3 -0.1
v 0.7 1.3 -0.1
v 0.4 1.3 -0.4
v 0.6 1.3 -0.4
v 0.7 1.3 -0.4
v 0.6 1.3 -0.5
v 0.7 1.3 -0.5
v 0.4 1.4 -0.4
v 0.6 1.4 -0.4
v 0.4 1.4 -0.5
v 0.6 1.4 -0.5
v 0.7 1.4 -0.5
v 0.3 1.4 -0.6
v 0.4 1.4 -0.6
v 0.6 1.4 -0.6
v 0.7 1.4 -0.6
v 0.3 1.4 -0.7
v 0.4 1.4 -0.7
v 0.3 1.4 -0.9
v 0.4 1.4 -0.9
v 0.6 1.4 -0.9
v 0.7 1.4 -0.9
v 0.4 1.4 -1
v 0.6 1.4 -1
v 0.7 1.4 -1
v 0.6 1.7 0.3
v 0.7 1.7 0.3
v 0.6 1.7 0.2
v 0.7 1.7 0.2
v 0.6 1.7 0.1
v 0.7 1.7 0.1
v 0.6 1.7 -2.98023e-08
v 0.7 1.7 -2.98023e-08
v 0.5 1.8 0.3
v 0.6 1.8 0.3
v 0.5 1.8 0.2
v 0.6 1.8 0.2
v 0.7 1.8 0.2
v 0.5 1.8 0.1
v 0.6 1.8 0.1
v 0.7 1.8 0.1
v 0.2 1.8 -2.98023e-08
v 0.4 1.8 -2.98023e-08
v 0.5 1.8 -2.98023e-08
v 0.6 1.8 -2.98023e-08
v 0.2 1.8 -0.1
v 0.4 1.8 -0.1
v 0.2 1.9 0.3
v 0.5 1.9 0.3
v 0.5 1.9 0.2
v 0.6 1.9 0.2
v 0.5 1.9 0.1
v 0.6 1.9 0.1
v 0.2 1.9 -2.98023e-08
v 0.5 1.9 -2.98023e-08

# faces
f 5/2/1 2/2/1 1/2/1
f 6/1/1 3/1/1 2/1/1
f 6/2/1 2/2/1 5/2/1
f 7/2/1 4/2/1 3/2/1
f 7/1/1 3/1/1 6/1/1
f 8/2/1 4/2/1 7/2/1
f 9/3/1 6/3/1 5/3/1
f 9/3/1 7/3/1 6/3/1
f 10/3/1 7/3/1 9/3/1
f 14/1/1 12/1/1 11/1/1
f 15/3/1 13/3/1 12/3/1
f 15/1/1 12/1/1 14/1/1
f 16/3/1 15/3/1 14/3/1
f 17/3/1 13/3/1 15/3/1
f 17/3/1 15/3/1 16/3/1
f 18/1/1 17/1/1 16/1/1
f 19/1/1 17/1/1 18/1/1
f 24/3/1 19/3/1 18/3/1
f 25/3/1 19/3/1 24/3/1
f 26/1/1 25/1/1 24/1/1
f 27/3/1 19/3/1 25/3/1
f 27/1/1 25/1/1 26/1/1
f 28/3/1 19/3/1 27/3/1
f 29/2/1 21/2/1 20/2/1
f 30/1/1 22/1/1 21/1/1
f 30/2/1 21/2/1 29/2/1
f 31/2/1 23/2/1 22/2/1
f 31/1/1 22/1/1 30/1/1
f 32/2/1 23/2/1 31/2/1
f 39/4/1 34/4/1 33/4/1
f 40/5/1 35/5/1 34/5/1
f 42/1/1 39/1/1 38/1/1
f 43/5/1 40/5/1 34/5/1
f 44/3/1 37/3/1 36/3/1
f 45/3/1 37/3/1 44/3/1
f 46/5/1 43/5/1 34/5/1
f 47/2/1 45/2/1 44/2/1
f 48/2/1 45/2/1 47/2/1
f 49/1/1 42/1/1 41/1/1
f 50/1/1 39/1/1 42/1/1
f 50/1/1 42/1/1 49/1/1
f 51/1/1 39/1/1 50/1/1
f 52/4/1 34/4/1 39/4/1
f 52/1/1 39/1/1 51/1/1
f 53/5/1 46/5/1 34/5/1
f 54/4/1 34/4/1 52/4/1
f 55/5/1 53/5/1 34/5/1
f 55/4/1 34/4/1 54/4/1
f 56/5/1 53/5/1 55/5/1
f 57/3/1 48/3/1 47/3/1
f 58/3/1 48/3/1 57/3/1
f 62/3/1 60/3/1 59/3/1
f 63/3/1 60/3/1 62/3/1
f 64/3/1 62/3/1 61/3/1
f 65/3/1 62/3/1 64/3/1
f 66/2/2 67/2/2 68/2/2
f 68/2/2 67/2/2 69/2/2
f 70/3/2 71/3/2 74/3/2
f 74/3/2 71/3/2 75/3/2
f 72/3/2 73/3/2 76/3/2
f 76/3/2 73/3/2 77/3/2
f 78/4/2 79/4/2 82/4/2
f 82/4/2 79/4/2 83/4/2
f 80/3/2 81/3/2 85/3/2
f 85/3/2 81/3/2 86/3/2
f 84/3/2 85/3/2 87/3/2
f 87/3/2 85/3/2 88/3/2
f 89/4/2 90/4/2 91/4/2
f 91/4/2 90/4/2 92/4/2
f 93/1/2 94/1/2 97/1/2
f 97/1/2 94/1/2 98/1/2
f 95/1/2 96/1/2 99/1/2
f 99/1/2 96/1/2 100/1/2
f 98/3/2 99/3/2 101/3/2
f 101/3/2 99/3/2 102/3/2
f 103/5/2 104/5/2 110/5/2
f 104/3/2 105/3/2 111/3/2
f 110/5/2 104/5/2 111/5/2
f 111/3/2 105/3/2 112/3/2
f 107/1/2 108/1/2 114/1/2
f 111/1/2 112/1/2 115/1/2
f 112/3/2 105/3/2 116/3/2
f 115/1/2 112/1/2 116/1/2
f 105/2/2 106/2/2 117/2/2
f 116/3/2 105/3/2 117/3/2
f 115/2/2 116/2/2 118/2/2
f 111/1/2 115/1/2 118/1/2
f 116/2/2 117/2/2 118/2/2
f 118/2/2 117/2/2 119/2/2
f 117/2/2 106/2/2 120/2/2
f 119/2/2 117/2/2 120/2/2
f 113/1/2 114/1/2 122/1/2
f 114/1/2 108/1/2 123/1/2
f 122/1/2 114/1/2 123/1/2
f 108/3/2 109/3/2 124/3/2
f 123/1/2 108/1/2 124/1/2
f 109/4/2 110/4/2 125/4/2
f 124/3/2 109/3/2 125/3/2
f 110/5/2 111/5/2 126/5/2
f 125/4/2 110/4/2 126/4/2
f 118/1/2 119/1/2 127/1/2
f 126/5/2 111/5/2 127/5/2
f 111/1/2 118/1/2 127/1/2
f 119/3/2 120/3/2 128/3/2
f 127/1/2 119/1/2 128/1/2
f 122/1/2 123/1/2 129/1/2
f 121/1/2 122/1/2 129/1/2
f 129/1/2 123/1/2 130/1/2
f 130/1/2 123/1/2 131/1/2
f 131/1/2 123/1/2 132/1/2
f 126/5/2 127/5/2 133/5/2
f 127/3/2 128/3/2 134/3/2
f 133/5/2 127/5/2 134/5/2
f 128/3/2 120/3/2 135/3/2
f 134/3/2 128/3/2 135/3/2
f 120/2/2 106/2/2 135/2/2
f 135/2/2 106/2/2 136/2/2
f 129/3/2 130/3/2 137/3/2
f 130/1/2 131/1/2 138/1/2
f 137/3/2 130/3/2 138/3/2
f 131/3/2 132/3/2 139/3/2
f 138/1/2 131/1/2 139/1/2
f 139/3/2 132/3/2 140/3/2
f 138/3/2 139/3/2 141/3/2
f 141/3/2 139/3/2 142/3/2
f 147/2/3 144/2/3 143/2/3
f 148/2/3 147/2/3 146/2/3
f 149/3/3 145/3/3 144/3/3
f 149/2/3 147/2/3 148/2/3
f 149/2/3 144/2/3 147/2/3
f 151/1/3 149/1/3 148/1/3
f 152/3/3 145/3/3 149/3/3
f 152/1/3 149/1/3 151/1/3
f 153/3/3 145/3/3 152/3/3
f 154/3/3 151/3/3 150/3/3
f 155/1/3 152/1/3 151/1/3
f 155/3/3 151/3/3 154/3/3
f 156/1/3 152/1/3 155/1/3
f 157/1/3 152/1/3 156/1/3
f 158/1/3 152/1/3 157/1/3
f 159/1/3 156/1/3 155/1/3
f 160/3/3 157/3/3 156/3/3
f 160/1/3 156/1/3 159/1/3
f 161/3/3 157/3/3 160/3/3
f 165/1/3 163/1/3 162/1/3
f 166/1/3 163/1/3 165/1/3
f 169/3/3 165/3/3 164/3/3
f 170/3/3 165/3/3 169/3/3
f 173/3/3 168/3/3 167/3/3
f 174/3/3 168/3/3 173/3/3
f 175/1/3 171/1/3 170/1/3
f 176/1/3 171/1/3 175/1/3
f 177/3/3 173/3/3 172/3/3
f 178/3/3 173/3/3 177/3/3
f 181/1/3 180/1/3 179/1/3
f 182/1/3 180/1/3 181/1/3
f 185/1/3 184/1/3 183/1/3
f 186/1/3 184/1/3 185/1/3
f 191/4/3 188/4/3 187/4/3
f 192/4/3 188/4/3 191/4/3
f 193/4/3 190/4/3 189/4/3
f 194/4/3 190/4/3 193/4/3
f 199/5/3 196/5/3 195/5/3
f 200/5/3 196/5/3 199/5/3
f 201/5/3 198/5/3 197/5/3
f 202/5/3 198/5/3 201/5/3
f 209/1/3 204/1/3 203/1/3
f 210/3/3 205/3/3 204/3/3
f 210/1/3 204/1/3 209/1/3
f 211/1/3 206/1/3 205/1/3
f 211/3/3 205/3/3 210/3/3
f 212/3/3 207/3/3 206/3/3
f 212/1/3 206/1/3 211/1/3
f 213/1/3 208/1/3 207/1/3
f 213/3/3 207/3/3 212/3/3
f 214/1/3 208/1/3 213/1/3
f 215/3/4 216/3/4 218/3/4
f 218/3/4 216/3/4 219/3/4
f 217/3/4 218/3/4 220/3/4
f 220/3/4 218/3/4 221/3/4
f 222/3/4 223/3/4 225/3/4
f 225/3/4 223/3/4 226/3/4
f 224/1/4 225/1/4 226/1/4
f 226/3/4 223/3/4 227/3/4
f 224/1/4 226/1/4 228/1/4
f 228/1/4 226/1/4 229/1/4
f 229/1/4 226/1/4 230/1/4
f 224/1/4 228/1/4 231/1/4
f 228/3/4 229/3/4 232/3/4
f 231/1/4 228/1/4 232/1/4
f 232/3/4 229/3/4 233/3/4
f 234/2/4 235/2/4 237/2/4
f 236/2/4 237/2/4 238/2/4
f 237/2/4 235/2/4 239/2/4
f 238/2/4 237/2/4 239/2/4
f 240/3/4 241/3/4 244/3/4
f 241/1/4 242/1/4 245/1/4
f 244/3/4 241/3/4 245/3/4
f 242/3/4 243/3/4 246/3/4
f 245/1/4 242/1/4 246/1/4
f 246/3/4 243/3/4 247/3/4
f 248/3/4 249/3/4 252/3/4
f 249/2/4 250/2/4 253/2/4
f 252/3/4 249/3/4 253/3/4
f 250/3/4 251/3/4 254/3/4
f 253/2/4 250/2/4 254/2/4
f 254/3/4 251/3/4 255/3/4
f 252/2/4 253/2/4 256/2/4
f 253/2/4 254/2/4 256/2/4
f 254/2/4 255/2/4 256/2/4
f 256/2/4 255/2/4 257/2/4
f 260/4/5 259/4/5 258/4/5
f 261/4/5 259/4/5 260/4/5
f 264/5/5 261/5/5 260/5/5
f 264/5/5 262/5/5 261/5/5
f 265/5/5 262/5/5 264/5/5
f 266/5/5 262/5/5 265/5/5
f 267/1/5 264/1/5 263/1/5
f 267/1/5 265/1/5 264/1/5
f 268/1/5 265/1/5 267/1/5
f 269/3/5 268/3/5 267/3/5
f 270/1/5 265/1/5 268/1/5
f 270/3/5 268/3/5 269/3/5
f 271/3/5 266/3/5 265/3/5
f 271/1/5 265/1/5 270/1/5
f 272/3/5 266/3/5 271/3/5
f 273/3/5 271/3/5 270/3/5
f 274/2/5 272/2/5 271/2/5
f 274/3/5 271/3/5 273/3/5
f 275/2/5 272/2/5 274/2/5
f 279/3/5 277/3/5 276/3/5
f 280/3/5 277/3/5 279/3/5
f 282/1/5 279/1/5 278/1/5
f 282/1/5 281/1/5 280/1/5
f 282/1/5 280/1/5 279/1/5
f 283/1/5 281/1/5 282/1/5
f 284/1/5 282/1/5 278/1/5
f 285/3/5 283/3/5 282/3/5
f 285/1/5 282/1/5 284/1/5
f 286/3/5 283/3/5 285/3/5
f 287/4/5 286/4/5 285/4/5
f 288/4/5 286/4/5 287/4/5
f 292/3/5 290/3/5 289/3/5
f 293/3/5 290/3/5 292/3/5
f 295/1/5 292/1/5 291/1/5
f 296/1/5 292/1/5 295/1/5
f 297/1/5 294/1/5 293/1/5
f 298/1/5 294/1/5 297/1/5
f 304/2/5 300/2/5 299/2/5
f 305/1/5 301/1/5 300/1/5
f 305/2/5 300/2/5 304/2/5
f 306/1/5 301/1/5 305/1/5
f 307/1/5 303/1/5 302/1/5
f 308/1/5 303/1/5 307/1/5
f 309/1/5 305/1/5 304/1/5
f 310/1/5 305/1/5 309/1/5
f 311/2/5 310/2/5 309/2/5
f 312/2/5 310/2/5 311/2/5
f 315/2/5 314/2/5 313/2/5
f 316/2/5 314/2/5 315/2/5
f 317/1/5 316/1/5 315/1/5
f 318/1/5 316/1/5 317/1/5
f 319/2/5 318/2/5 317/2/5
f 320/2/5 318/2/5 319/2/5
f 321/1/6 322/1/6 323/1/6
f 323/1/6 322/1/6 324/1/6
f 324/1/6 322/1/6 325/1/6
f 323/1/6 324/1/6 326/1/6
f 324/3/6 325/3/6 327/3/6
f 326/1/6 324/1/6 327/1/6
f 327/3/6 325/3/6 328/3/6
f 327/4/6 328/4/6 329/4/6
f 329/4/6 328/4/6 330/4/6
f 331/4/6 332/4/6 333/4/6
f 333/4/6 332/4/6 334/4/6
f 333/5/6 334/5/6 337/5/6
f 334/5/6 335/5/6 337/5/6
f 337/5/6 335/5/6 338/5/6
f 338/5/6 335/5/6 339/5/6
f 336/1/6 337/1/6 340/1/6
f 337/1/6 338/1/6 340/1/6
f 340/1/6 338/1/6 341/1/6
f 340/3/6 341/3/6 342/3/6
f 341/1/6 338/1/6 343/1/6
f 342/3/6 341/3/6 343/3/6
f 338/3/6 339/3/6 344/3/6
f 343/1/6 338/1/6 344/1/6
f 344/3/6 339/3/6 345/3/6
f 343/3/6 344/3/6 346/3/6
f 344/2/6 345/2/6 347/2/6
f 346/3/6 344/3/6 347/3/6
f 347/2/6 345/2/6 348/2/6
f 349/3/6 350/3/6 351/3/6
f 351/3/6 350/3/6 352/3/6
f 353/3/6 354/3/6 355/3/6
f 355/3/6 354/3/6 356/3/6
f 357/1/6 358/1/6 359/1/6
f 359/1/6 358/1/6 360/1/6
f 360/3/6 361/3/6 363/3/6
f 363/3/6 361/3/6 364/3/6
f 362/1/6 363/1/6 367/1/6
f 367/1/6 363/1/6 368/1/6
f 365/2/6 366/2/6 369/2/6
f 369/2/6 366/2/6 370/2/6
f 371/3/6 372/3/6 373/3/6
f 371/3/6 373/3/6 375/3/6
f 373/3/6 374/3/6 375/3/6
f 375/3/6 374/3/6 376/3/6
f 371/3/6 375/3/6 377/3/6
f 377/3/6 375/3/6 378/3/6
