# MagicaVoxel @ Ephtracy

# group
o armL

# material
mtllib anubis_vox-4-armL.mtl
usemtl palette

# normals
vn -1 0 0
vn 1 0 0
vn 0 0 1
vn 0 0 -1
vn 0 -1 0
vn 0 1 0

# texcoords
vt 0.00976563 0.5
vt 0.0136719 0.5
vt 0.0175781 0.5
vt 0.0214844 0.5
vt 0.0253906 0.5

# verts
v -1.5 0.5 0.4
v -1.5 0.5 -0.1
v -1.5 0.6 0.4
v -1.5 0.6 0.2
v -1.5 0.6 0.1
v -1.5 0.6 -0.1
v -1.5 0.7 0.3
v -1.5 0.7 0.2
v -1.5 0.7 0.1
v -1.5 0.7 0
v -1.5 0.8 0.2
v -1.5 0.8 0.1
v -1.5 0.9 0.4
v -1.5 0.9 0.3
v -1.5 0.9 0
v -1.5 0.9 -0.1
v -1.5 1 0.4
v -1.5 1 0.3
v -1.5 1 0
v -1.5 1 -0.1
v -1.5 1.1 0.3
v -1.5 1.1 0
v -1.5 1.2 0.3
v -1.5 1.2 0
v -1.5 1.4 0.3
v -1.5 1.4 0.2
v -1.5 1.4 0.1
v -1.5 1.4 0
v -1.5 1.7 0.3
v -1.5 1.7 0.2
v -1.5 1.7 0.1
v -1.5 1.7 0
v -1.5 1.8 0.2
v -1.5 1.8 0.1
v -1.4 1 0.4
v -1.4 1 0.3
v -1.4 1 0
v -1.4 1 -0.1
v -1.4 1.1 0.4
v -1.4 1.1 0.3
v -1.4 1.1 0
v -1.4 1.1 -0.1
v -1.4 1.7 0.3
v -1.4 1.7 0.2
v -1.4 1.7 0.1
v -1.4 1.7 0
v -1.4 1.8 0.3
v -1.4 1.8 0.2
v -1.4 1.8 0.1
v -1.4 1.8 0
v -1.4 1.9 0.2
v -1.4 1.9 0.1
v -1.3 1.8 0.3
v -1.3 1.8 0.2
v -1.3 1.8 0.1
v -1.3 1.8 0
v -1.3 1.9 0.3
v -1.3 1.9 0.2
v -1.3 1.9 0.1
v -1.3 1.9 0
v -1.2 1.3 0
v -1.2 1.3 -0.1
v -1.2 1.8 0
v -1.2 1.8 -0.1
v -1.2 0.5 0.4
v -1.2 0.5 0.2
v -1.2 0.5 0.1
v -1.2 0.5 -0.1
v -1.2 0.6 0.4
v -1.2 0.6 0.2
v -1.2 0.6 0.1
v -1.2 0.6 -0.1
v -1.2 0.9 0.4
v -1.2 0.9 -0.1
v -1.2 1 0.4
v -1.2 1 -0.1
v -1.2 1.1 0.4
v -1.2 1.1 0.3
v -1.2 1.1 0
v -1.2 1.1 -0.1
v -1.2 1.3 0.3
v -1.2 1.3 0.2
v -1.2 1.3 0
v -1.1 1.3 0.3
v -1.1 1.3 0.2
v -1.1 1.3 0
v -1.1 1.3 -0.1
v -1.1 1.6 0.3
v -1.1 1.6 0.2
v -1.1 1.6 0
v -1.1 1.6 -0.1
v -1 1.6 0.3
v -1 1.6 0.2
v -1 1.6 0
v -1 1.6 -0.1
v -1 1.8 0.3
v -1 1.8 0.2
v -1 1.8 0
v -1 1.8 -0.1
v -1 1.9 0.3
v -1 1.9 0
v -1.5 0.5 0.4
v -1.5 0.6 0.4
v -1.5 0.9 0.4
v -1.5 1 0.4
v -1.4 0.5 0.4
v -1.4 0.6 0.4
v -1.4 0.9 0.4
v -1.4 1 0.4
v -1.4 1.1 0.4
v -1.2 0.5 0.4
v -1.2 0.6 0.4
v -1.2 0.9 0.4
v -1.2 1 0.4
v -1.2 1.1 0.4
v -1.5 1 0.3
v -1.5 1.1 0.3
v -1.5 1.2 0.3
v -1.5 1.4 0.3
v -1.5 1.7 0.3
v -1.4 1 0.3
v -1.4 1.1 0.3
v -1.4 1.2 0.3
v -1.4 1.4 0.3
v -1.4 1.7 0.3
v -1.4 1.8 0.3
v -1.3 1.8 0.3
v -1.3 1.9 0.3
v -1.2 1.1 0.3
v -1.2 1.3 0.3
v -1.2 1.8 0.3
v -1.1 1.3 0.3
v -1.1 1.6 0.3
v -1 1.6 0.3
v -1 1.8 0.3
v -1 1.9 0.3
v -1.5 1.7 0.2
v -1.5 1.8 0.2
v -1.4 1.7 0.2
v -1.4 1.8 0.2
v -1.4 1.9 0.2
v -1.3 1.8 0.2
v -1.3 1.9 0.2
v -1.5 1.7 0.1
v -1.5 1.8 0.1
v -1.4 1.7 0.1
v -1.4 1.8 0.1
v -1.4 1.9 0.1
v -1.3 1.8 0.1
v -1.3 1.9 0.1
v -1.5 1 0
v -1.5 1.1 0
v -1.5 1.2 0
v -1.5 1.4 0
v -1.5 1.7 0
v -1.4 1 0
v -1.4 1.1 0
v -1.4 1.2 0
v -1.4 1.4 0
v -1.4 1.7 0
v -1.4 1.8 0
v -1.3 1.8 0
v -1.3 1.9 0
v -1.2 1.1 0
v -1.2 1.3 0
v -1.2 1.8 0
v -1 1.8 0
v -1 1.9 0
v -1.5 0.5 -0.1
v -1.5 0.6 -0.1
v -1.5 0.9 -0.1
v -1.5 1 -0.1
v -1.4 0.5 -0.1
v -1.4 0.6 -0.1
v -1.4 0.9 -0.1
v -1.4 1 -0.1
v -1.4 1.1 -0.1
v -1.2 0.5 -0.1
v -1.2 0.6 -0.1
v -1.2 0.9 -0.1
v -1.2 1 -0.1
v -1.2 1.1 -0.1
v -1.2 1.3 -0.1
v -1.2 1.8 -0.1
v -1.1 1.3 -0.1
v -1.1 1.6 -0.1
v -1 1.6 -0.1
v -1 1.8 -0.1
v -1.5 0.5 0.4
v -1.4 0.5 0.4
v -1.2 0.5 0.4
v -1.4 0.5 0.2
v -1.2 0.5 0.2
v -1.4 0.5 0.1
v -1.2 0.5 0.1
v -1.5 0.5 -0.1
v -1.4 0.5 -0.1
v -1.2 0.5 -0.1
v -1.2 1.3 0.3
v -1.1 1.3 0.3
v -1.2 1.3 0.2
v -1.1 1.3 0.2
v -1.2 1.3 0
v -1.1 1.3 0
v -1.2 1.3 -0.1
v -1.1 1.3 -0.1
v -1.1 1.6 0.3
v -1 1.6 0.3
v -1.1 1.6 0.2
v -1 1.6 0.2
v -1.1 1.6 0
v -1 1.6 0
v -1.1 1.6 -0.1
v -1 1.6 -0.1
v -1.5 1 0.4
v -1.4 1 0.4
v -1.5 1 0.3
v -1.4 1 0.3
v -1.5 1 0
v -1.4 1 0
v -1.5 1 -0.1
v -1.4 1 -0.1
v -1.4 1.1 0.4
v -1.2 1.1 0.4
v -1.4 1.1 0.3
v -1.2 1.1 0.3
v -1.4 1.1 0
v -1.2 1.1 0
v -1.4 1.1 -0.1
v -1.2 1.1 -0.1
v -1.5 1.7 0.3
v -1.4 1.7 0.3
v -1.5 1.7 0.2
v -1.4 1.7 0.2
v -1.5 1.7 0.1
v -1.4 1.7 0.1
v -1.5 1.7 0
v -1.4 1.7 0
v -1.4 1.8 0.3
v -1.3 1.8 0.3
v -1.5 1.8 0.2
v -1.4 1.8 0.2
v -1.3 1.8 0.2
v -1.5 1.8 0.1
v -1.4 1.8 0.1
v -1.3 1.8 0.1
v -1.4 1.8 0
v -1.3 1.8 0
v -1.2 1.8 0
v -1 1.8 0
v -1.2 1.8 -0.1
v -1 1.8 -0.1
v -1.3 1.9 0.3
v -1 1.9 0.3
v -1.4 1.9 0.2
v -1.3 1.9 0.2
v -1.4 1.9 0.1
v -1.3 1.9 0.1
v -1.3 1.9 0
v -1 1.9 0

# faces
f 3/2/1 2/2/1 1/2/1
f 4/2/1 2/2/1 3/2/1
f 5/2/1 2/2/1 4/2/1
f 6/2/1 2/2/1 5/2/1
f 7/3/1 4/3/1 3/3/1
f 8/2/1 5/2/1 4/2/1
f 8/3/1 4/3/1 7/3/1
f 9/3/1 6/3/1 5/3/1
f 9/2/1 5/2/1 8/2/1
f 10/3/1 6/3/1 9/3/1
f 11/1/1 8/1/1 7/1/1
f 11/2/1 9/2/1 8/2/1
f 12/1/1 10/1/1 9/1/1
f 12/2/1 9/2/1 11/2/1
f 13/3/1 7/3/1 3/3/1
f 14/1/1 11/1/1 7/1/1
f 14/3/1 7/3/1 13/3/1
f 14/1/1 12/1/1 11/1/1
f 15/1/1 10/1/1 12/1/1
f 15/1/1 12/1/1 14/1/1
f 15/3/1 6/3/1 10/3/1
f 16/3/1 6/3/1 15/3/1
f 17/5/1 14/5/1 13/5/1
f 17/5/1 15/5/1 14/5/1
f 17/5/1 16/5/1 15/5/1
f 18/5/1 16/5/1 17/5/1
f 19/5/1 16/5/1 18/5/1
f 20/5/1 16/5/1 19/5/1
f 21/4/1 19/4/1 18/4/1
f 22/4/1 19/4/1 21/4/1
f 23/3/1 22/3/1 21/3/1
f 24/3/1 22/3/1 23/3/1
f 25/1/1 24/1/1 23/1/1
f 26/1/1 24/1/1 25/1/1
f 27/1/1 24/1/1 26/1/1
f 28/1/1 24/1/1 27/1/1
f 29/3/1 26/3/1 25/3/1
f 30/1/1 27/1/1 26/1/1
f 30/3/1 26/3/1 29/3/1
f 31/3/1 28/3/1 27/3/1
f 31/1/1 27/1/1 30/1/1
f 32/3/1 28/3/1 31/3/1
f 33/3/1 31/3/1 30/3/1
f 34/3/1 31/3/1 33/3/1
f 39/4/1 36/4/1 35/4/1
f 40/4/1 36/4/1 39/4/1
f 41/4/1 38/4/1 37/4/1
f 42/4/1 38/4/1 41/4/1
f 47/1/1 44/1/1 43/1/1
f 48/1/1 44/1/1 47/1/1
f 49/1/1 46/1/1 45/1/1
f 50/1/1 46/1/1 49/1/1
f 51/3/1 49/3/1 48/3/1
f 52/3/1 49/3/1 51/3/1
f 57/3/1 54/3/1 53/3/1
f 58/3/1 54/3/1 57/3/1
f 59/3/1 56/3/1 55/3/1
f 60/3/1 56/3/1 59/3/1
f 63/2/1 62/2/1 61/2/1
f 64/2/1 62/2/1 63/2/1
f 65/3/2 66/3/2 69/3/2
f 66/2/2 67/2/2 70/2/2
f 69/3/2 66/3/2 70/3/2
f 67/3/2 68/3/2 71/3/2
f 70/2/2 67/2/2 71/2/2
f 71/3/2 68/3/2 72/3/2
f 69/1/2 70/1/2 73/1/2
f 70/1/2 71/1/2 73/1/2
f 71/1/2 72/1/2 73/1/2
f 73/1/2 72/1/2 74/1/2
f 73/5/2 74/5/2 75/5/2
f 75/5/2 74/5/2 76/5/2
f 75/4/2 76/4/2 77/4/2
f 77/4/2 76/4/2 78/4/2
f 78/4/2 76/4/2 79/4/2
f 79/4/2 76/4/2 80/4/2
f 78/1/2 79/1/2 81/1/2
f 81/1/2 79/1/2 82/1/2
f 82/1/2 79/1/2 83/1/2
f 84/2/2 85/2/2 88/2/2
f 85/1/2 86/1/2 89/1/2
f 88/2/2 85/2/2 89/2/2
f 86/2/2 87/2/2 90/2/2
f 89/1/2 86/1/2 90/1/2
f 90/2/2 87/2/2 91/2/2
f 92/2/2 93/2/2 96/2/2
f 93/1/2 94/1/2 97/1/2
f 96/2/2 93/2/2 97/2/2
f 94/2/2 95/2/2 98/2/2
f 97/1/2 94/1/2 98/1/2
f 98/2/2 95/2/2 99/2/2
f 96/3/2 97/3/2 100/3/2
f 97/3/2 98/3/2 100/3/2
f 100/3/2 98/3/2 101/3/2
f 106/2/3 103/2/3 102/2/3
f 107/3/3 104/3/3 103/3/3
f 107/2/3 103/2/3 106/2/3
f 108/5/3 105/5/3 104/5/3
f 108/3/3 104/3/3 107/3/3
f 109/5/3 105/5/3 108/5/3
f 111/3/3 107/3/3 106/3/3
f 112/1/3 108/1/3 107/1/3
f 112/3/3 107/3/3 111/3/3
f 113/5/3 109/5/3 108/5/3
f 113/1/3 108/1/3 112/1/3
f 114/4/3 110/4/3 109/4/3
f 114/5/3 109/5/3 113/5/3
f 115/4/3 110/4/3 114/4/3
f 121/4/3 117/4/3 116/4/3
f 122/3/3 118/3/3 117/3/3
f 122/4/3 117/4/3 121/4/3
f 123/1/3 119/1/3 118/1/3
f 123/3/3 118/3/3 122/3/3
f 124/3/3 120/3/3 119/3/3
f 124/1/3 119/1/3 123/1/3
f 125/3/3 120/3/3 124/3/3
f 127/1/3 123/1/3 122/1/3
f 127/1/3 126/1/3 125/1/3
f 127/1/3 125/1/3 124/1/3
f 127/1/3 124/1/3 123/1/3
f 129/1/3 127/1/3 122/1/3
f 130/1/3 127/1/3 129/1/3
f 131/3/3 128/3/3 127/3/3
f 131/1/3 127/1/3 130/1/3
f 132/2/3 131/2/3 130/2/3
f 133/2/3 131/2/3 132/2/3
f 134/2/3 131/2/3 133/2/3
f 135/3/3 128/3/3 131/3/3
f 135/2/3 131/2/3 134/2/3
f 136/3/3 128/3/3 135/3/3
f 139/3/3 138/3/3 137/3/3
f 140/3/3 138/3/3 139/3/3
f 142/3/3 141/3/3 140/3/3
f 143/3/3 141/3/3 142/3/3
f 144/3/4 145/3/4 146/3/4
f 146/3/4 145/3/4 147/3/4
f 147/3/4 148/3/4 149/3/4
f 149/3/4 148/3/4 150/3/4
f 151/4/4 152/4/4 156/4/4
f 152/3/4 153/3/4 157/3/4
f 156/4/4 152/4/4 157/4/4
f 153/1/4 154/1/4 158/1/4
f 157/3/4 153/3/4 158/3/4
f 154/3/4 155/3/4 159/3/4
f 158/1/4 154/1/4 159/1/4
f 159/3/4 155/3/4 160/3/4
f 157/1/4 158/1/4 162/1/4
f 160/1/4 161/1/4 162/1/4
f 159/1/4 160/1/4 162/1/4
f 158/1/4 159/1/4 162/1/4
f 157/1/4 162/1/4 164/1/4
f 164/1/4 162/1/4 165/1/4
f 162/3/4 163/3/4 166/3/4
f 165/1/4 162/1/4 166/1/4
f 166/3/4 163/3/4 167/3/4
f 167/3/4 163/3/4 168/3/4
f 169/2/4 170/2/4 173/2/4
f 170/3/4 171/3/4 174/3/4
f 173/2/4 170/2/4 174/2/4
f 171/5/4 172/5/4 175/5/4
f 174/3/4 171/3/4 175/3/4
f 175/5/4 172/5/4 176/5/4
f 173/3/4 174/3/4 178/3/4
f 174/1/4 175/1/4 179/1/4
f 178/3/4 174/3/4 179/3/4
f 175/5/4 176/5/4 180/5/4
f 179/1/4 175/1/4 180/1/4
f 176/4/4 177/4/4 181/4/4
f 180/5/4 176/5/4 181/5/4
f 181/4/4 177/4/4 182/4/4
f 183/2/4 184/2/4 185/2/4
f 185/2/4 184/2/4 186/2/4
f 186/2/4 184/2/4 187/2/4
f 187/2/4 184/2/4 188/2/4
f 192/2/5 190/2/5 189/2/5
f 192/3/5 191/3/5 190/3/5
f 193/3/5 191/3/5 192/3/5
f 194/2/5 192/2/5 189/2/5
f 194/2/5 193/2/5 192/2/5
f 195/2/5 193/2/5 194/2/5
f 196/2/5 194/2/5 189/2/5
f 197/3/5 195/3/5 194/3/5
f 197/2/5 194/2/5 196/2/5
f 198/3/5 195/3/5 197/3/5
f 201/2/5 200/2/5 199/2/5
f 202/2/5 200/2/5 201/2/5
f 203/1/5 202/1/5 201/1/5
f 204/1/5 202/1/5 203/1/5
f 205/2/5 204/2/5 203/2/5
f 206/2/5 204/2/5 205/2/5
f 209/2/5 208/2/5 207/2/5
f 210/2/5 208/2/5 209/2/5
f 211/1/5 210/1/5 209/1/5
f 212/1/5 210/1/5 211/1/5
f 213/2/5 212/2/5 211/2/5
f 214/2/5 212/2/5 213/2/5
f 215/5/6 216/5/6 217/5/6
f 217/5/6 216/5/6 218/5/6
f 219/5/6 220/5/6 221/5/6
f 221/5/6 220/5/6 222/5/6
f 223/4/6 224/4/6 225/4/6
f 225/4/6 224/4/6 226/4/6
f 227/4/6 228/4/6 229/4/6
f 229/4/6 228/4/6 230/4/6
f 231/3/6 232/3/6 233/3/6
f 233/3/6 232/3/6 234/3/6
f 235/3/6 236/3/6 237/3/6
f 237/3/6 236/3/6 238/3/6
f 239/1/6 240/1/6 242/1/6
f 242/1/6 240/1/6 243/1/6
f 241/3/6 242/3/6 244/3/6
f 244/3/6 242/3/6 245/3/6
f 245/1/6 246/1/6 247/1/6
f 247/1/6 246/1/6 248/1/6
f 249/2/6 250/2/6 251/2/6
f 251/2/6 250/2/6 252/2/6
f 253/3/6 254/3/6 256/3/6
f 255/3/6 256/3/6 257/3/6
f 256/3/6 254/3/6 258/3/6
f 257/3/6 256/3/6 258/3/6
f 258/3/6 254/3/6 259/3/6
f 259/3/6 254/3/6 260/3/6
