# MagicaVoxel @ Ephtracy

# group
o armR

# material
mtllib anubis_vox-3-armR.mtl
usemtl palette

# normals
vn -1 0 0
vn 1 0 0
vn 0 0 1
vn 0 0 -1
vn 0 -1 0
vn 0 1 0

# texcoords
vt 0.00976563 0.5
vt 0.0136719 0.5
vt 0.0175781 0.5
vt 0.0214844 0.5
vt 0.0253906 0.5

# verts
v 0.2 1.6 0.3
v 0.2 1.6 0.2
v 0.2 1.6 0
v 0.2 1.6 -0.1
v 0.2 1.8 0.3
v 0.2 1.8 0.2
v 0.2 1.8 0
v 0.2 1.8 -0.1
v 0.2 1.9 0.3
v 0.2 1.9 0
v 0.3 1.3 0.3
v 0.3 1.3 0.2
v 0.3 1.3 0
v 0.3 1.3 -0.1
v 0.3 1.6 0.3
v 0.3 1.6 0.2
v 0.3 1.6 0
v 0.3 1.6 -0.1
v 0.4 0.5 0.4
v 0.4 0.5 0.2
v 0.4 0.5 0.1
v 0.4 0.5 -0.1
v 0.4 0.6 0.4
v 0.4 0.6 0.2
v 0.4 0.6 0.1
v 0.4 0.6 -0.1
v 0.4 0.9 0.4
v 0.4 0.9 -0.1
v 0.4 1 0.4
v 0.4 1 -0.1
v 0.4 1.1 0.4
v 0.4 1.1 0.3
v 0.4 1.1 0
v 0.4 1.1 -0.1
v 0.4 1.3 0.3
v 0.4 1.3 0.2
v 0.4 1.3 0
v 0.4 1.3 0
v 0.4 1.3 -0.1
v 0.4 1.8 0
v 0.4 1.8 -0.1
v 0.5 1.8 0.3
v 0.5 1.8 0.2
v 0.5 1.8 0.1
v 0.5 1.8 0
v 0.5 1.9 0.3
v 0.5 1.9 0.2
v 0.5 1.9 0.1
v 0.5 1.9 0
v 0.6 1 0.4
v 0.6 1 0.3
v 0.6 1 0
v 0.6 1 -0.1
v 0.6 1.1 0.4
v 0.6 1.1 0.3
v 0.6 1.1 0
v 0.6 1.1 -0.1
v 0.6 1.7 0.3
v 0.6 1.7 0.2
v 0.6 1.7 0.1
v 0.6 1.7 0
v 0.6 1.8 0.3
v 0.6 1.8 0.2
v 0.6 1.8 0.1
v 0.6 1.8 0
v 0.6 1.9 0.2
v 0.6 1.9 0.1
v 0.7 0.5 0.4
v 0.7 0.5 -0.1
v 0.7 0.6 0.4
v 0.7 0.6 0.2
v 0.7 0.6 0.1
v 0.7 0.6 -0.1
v 0.7 0.7 0.3
v 0.7 0.7 0.2
v 0.7 0.7 0.1
v 0.7 0.7 0
v 0.7 0.8 0.2
v 0.7 0.8 0.1
v 0.7 0.9 0.4
v 0.7 0.9 0.3
v 0.7 0.9 0
v 0.7 0.9 -0.1
v 0.7 1 0.4
v 0.7 1 0.3
v 0.7 1 0
v 0.7 1 -0.1
v 0.7 1.1 0.3
v 0.7 1.1 0
v 0.7 1.2 0.3
v 0.7 1.2 0
v 0.7 1.4 0.3
v 0.7 1.4 0.2
v 0.7 1.4 0.1
v 0.7 1.4 0
v 0.7 1.7 0.3
v 0.7 1.7 0.2
v 0.7 1.7 0.1
v 0.7 1.7 0
v 0.7 1.8 0.2
v 0.7 1.8 0.1
v 0.4 0.5 0.4
v 0.4 0.6 0.4
v 0.4 0.9 0.4
v 0.4 1 0.4
v 0.4 1.1 0.4
v 0.6 0.5 0.4
v 0.6 0.6 0.4
v 0.6 0.9 0.4
v 0.6 1 0.4
v 0.6 1.1 0.4
v 0.7 0.5 0.4
v 0.7 0.6 0.4
v 0.7 0.9 0.4
v 0.7 1 0.4
v 0.2 1.6 0.3
v 0.2 1.8 0.3
v 0.2 1.9 0.3
v 0.3 1.3 0.3
v 0.3 1.6 0.3
v 0.4 1.1 0.3
v 0.4 1.3 0.3
v 0.4 1.8 0.3
v 0.5 1.8 0.3
v 0.5 1.9 0.3
v 0.6 1 0.3
v 0.6 1.1 0.3
v 0.6 1.2 0.3
v 0.6 1.4 0.3
v 0.6 1.7 0.3
v 0.6 1.8 0.3
v 0.7 1 0.3
v 0.7 1.1 0.3
v 0.7 1.2 0.3
v 0.7 1.4 0.3
v 0.7 1.7 0.3
v 0.5 1.8 0.2
v 0.5 1.9 0.2
v 0.6 1.7 0.2
v 0.6 1.8 0.2
v 0.6 1.9 0.2
v 0.7 1.7 0.2
v 0.7 1.8 0.2
v 0.5 1.8 0.1
v 0.5 1.9 0.1
v 0.6 1.7 0.1
v 0.6 1.8 0.1
v 0.6 1.9 0.1
v 0.7 1.7 0.1
v 0.7 1.8 0.1
v 0.2 1.8 0
v 0.2 1.9 0
v 0.4 1.1 0
v 0.4 1.3 0
v 0.4 1.8 0
v 0.5 1.8 0
v 0.5 1.9 0
v 0.6 1 0
v 0.6 1.1 0
v 0.6 1.2 0
v 0.6 1.4 0
v 0.6 1.7 0
v 0.6 1.8 0
v 0.7 1 0
v 0.7 1.1 0
v 0.7 1.2 0
v 0.7 1.4 0
v 0.7 1.7 0
v 0.2 1.6 -0.1
v 0.2 1.8 -0.1
v 0.3 1.3 -0.1
v 0.3 1.6 -0.1
v 0.4 0.5 -0.1
v 0.4 0.6 -0.1
v 0.4 0.9 -0.1
v 0.4 1 -0.1
v 0.4 1.1 -0.1
v 0.4 1.3 -0.1
v 0.4 1.8 -0.1
v 0.6 0.5 -0.1
v 0.6 0.6 -0.1
v 0.6 0.9 -0.1
v 0.6 1 -0.1
v 0.6 1.1 -0.1
v 0.7 0.5 -0.1
v 0.7 0.6 -0.1
v 0.7 0.9 -0.1
v 0.7 1 -0.1
v 0.4 0.5 0.4
v 0.6 0.5 0.4
v 0.7 0.5 0.4
v 0.4 0.5 0.2
v 0.6 0.5 0.2
v 0.4 0.5 0.1
v 0.6 0.5 0.1
v 0.4 0.5 -0.1
v 0.6 0.5 -0.1
v 0.7 0.5 -0.1
v 0.3 1.3 0.3
v 0.4 1.3 0.3
v 0.3 1.3 0.2
v 0.4 1.3 0.2
v 0.3 1.3 0
v 0.4 1.3 0
v 0.3 1.3 -0.1
v 0.4 1.3 -0.1
v 0.2 1.6 0.3
v 0.3 1.6 0.3
v 0.2 1.6 0.2
v 0.3 1.6 0.2
v 0.2 1.6 0
v 0.3 1.6 0
v 0.2 1.6 -0.1
v 0.3 1.6 -0.1
v 0.6 1 0.4
v 0.7 1 0.4
v 0.6 1 0.3
v 0.7 1 0.3
v 0.6 1 0
v 0.7 1 0
v 0.6 1 -0.1
v 0.7 1 -0.1
v 0.4 1.1 0.4
v 0.6 1.1 0.4
v 0.4 1.1 0.3
v 0.6 1.1 0.3
v 0.4 1.1 0
v 0.6 1.1 0
v 0.4 1.1 -0.1
v 0.6 1.1 -0.1
v 0.6 1.7 0.3
v 0.7 1.7 0.3
v 0.6 1.7 0.2
v 0.7 1.7 0.2
v 0.6 1.7 0.1
v 0.7 1.7 0.1
v 0.6 1.7 0
v 0.7 1.7 0
v 0.5 1.8 0.3
v 0.6 1.8 0.3
v 0.5 1.8 0.2
v 0.6 1.8 0.2
v 0.7 1.8 0.2
v 0.5 1.8 0.1
v 0.6 1.8 0.1
v 0.7 1.8 0.1
v 0.2 1.8 0
v 0.4 1.8 0
v 0.5 1.8 0
v 0.6 1.8 0
v 0.2 1.8 -0.1
v 0.4 1.8 -0.1
v 0.2 1.9 0.3
v 0.5 1.9 0.3
v 0.5 1.9 0.2
v 0.6 1.9 0.2
v 0.5 1.9 0.1
v 0.6 1.9 0.1
v 0.2 1.9 0
v 0.5 1.9 0

# faces
f 5/2/1 2/2/1 1/2/1
f 6/1/1 3/1/1 2/1/1
f 6/2/1 2/2/1 5/2/1
f 7/2/1 4/2/1 3/2/1
f 7/1/1 3/1/1 6/1/1
f 8/2/1 4/2/1 7/2/1
f 9/3/1 6/3/1 5/3/1
f 9/3/1 7/3/1 6/3/1
f 10/3/1 7/3/1 9/3/1
f 15/2/1 12/2/1 11/2/1
f 16/1/1 13/1/1 12/1/1
f 16/2/1 12/2/1 15/2/1
f 17/2/1 14/2/1 13/2/1
f 17/1/1 13/1/1 16/1/1
f 18/2/1 14/2/1 17/2/1
f 23/3/1 20/3/1 19/3/1
f 24/2/1 21/2/1 20/2/1
f 24/3/1 20/3/1 23/3/1
f 25/3/1 22/3/1 21/3/1
f 25/2/1 21/2/1 24/2/1
f 26/3/1 22/3/1 25/3/1
f 27/1/1 24/1/1 23/1/1
f 27/1/1 25/1/1 24/1/1
f 27/1/1 26/1/1 25/1/1
f 28/1/1 26/1/1 27/1/1
f 29/5/1 28/5/1 27/5/1
f 30/5/1 28/5/1 29/5/1
f 31/4/1 30/4/1 29/4/1
f 32/4/1 30/4/1 31/4/1
f 33/4/1 30/4/1 32/4/1
f 34/4/1 30/4/1 33/4/1
f 35/1/1 33/1/1 32/1/1
f 36/1/1 33/1/1 35/1/1
f 37/1/1 33/1/1 36/1/1
f 38/2/2 39/2/2 40/2/2
f 40/2/2 39/2/2 41/2/2
f 42/3/2 43/3/2 46/3/2
f 46/3/2 43/3/2 47/3/2
f 44/3/2 45/3/2 48/3/2
f 48/3/2 45/3/2 49/3/2
f 50/4/2 51/4/2 54/4/2
f 54/4/2 51/4/2 55/4/2
f 52/4/2 53/4/2 56/4/2
f 56/4/2 53/4/2 57/4/2
f 58/1/2 59/1/2 62/1/2
f 62/1/2 59/1/2 63/1/2
f 60/1/2 61/1/2 64/1/2
f 64/1/2 61/1/2 65/1/2
f 63/3/2 64/3/2 66/3/2
f 66/3/2 64/3/2 67/3/2
f 68/2/2 69/2/2 70/2/2
f 70/2/2 69/2/2 71/2/2
f 71/2/2 69/2/2 72/2/2
f 72/2/2 69/2/2 73/2/2
f 70/3/2 71/3/2 74/3/2
f 71/2/2 72/2/2 75/2/2
f 74/3/2 71/3/2 75/3/2
f 72/3/2 73/3/2 76/3/2
f 75/2/2 72/2/2 76/2/2
f 76/3/2 73/3/2 77/3/2
f 74/1/2 75/1/2 78/1/2
f 75/2/2 76/2/2 78/2/2
f 76/1/2 77/1/2 79/1/2
f 78/2/2 76/2/2 79/2/2
f 70/3/2 74/3/2 80/3/2
f 74/1/2 78/1/2 81/1/2
f 80/3/2 74/3/2 81/3/2
f 78/1/2 79/1/2 81/1/2
f 79/1/2 77/1/2 82/1/2
f 81/1/2 79/1/2 82/1/2
f 77/3/2 73/3/2 82/3/2
f 82/3/2 73/3/2 83/3/2
f 80/5/2 81/5/2 84/5/2
f 81/5/2 82/5/2 84/5/2
f 82/5/2 83/5/2 84/5/2
f 84/5/2 83/5/2 85/5/2
f 85/5/2 83/5/2 86/5/2
f 86/5/2 83/5/2 87/5/2
f 85/4/2 86/4/2 88/4/2
f 88/4/2 86/4/2 89/4/2
f 88/3/2 89/3/2 90/3/2
f 90/3/2 89/3/2 91/3/2
f 90/1/2 91/1/2 92/1/2
f 92/1/2 91/1/2 93/1/2
f 93/1/2 91/1/2 94/1/2
f 94/1/2 91/1/2 95/1/2
f 92/3/2 93/3/2 96/3/2
f 93/1/2 94/1/2 97/1/2
f 96/3/2 93/3/2 97/3/2
f 94/3/2 95/3/2 98/3/2
f 97/1/2 94/1/2 98/1/2
f 98/3/2 95/3/2 99/3/2
f 97/3/2 98/3/2 100/3/2
f 100/3/2 98/3/2 101/3/2
f 107/3/3 103/3/3 102/3/3
f 108/1/3 104/1/3 103/1/3
f 108/3/3 103/3/3 107/3/3
f 109/5/3 105/5/3 104/5/3
f 109/1/3 104/1/3 108/1/3
f 110/4/3 106/4/3 105/4/3
f 110/5/3 105/5/3 109/5/3
f 111/4/3 106/4/3 110/4/3
f 112/2/3 108/2/3 107/2/3
f 113/3/3 109/3/3 108/3/3
f 113/2/3 108/2/3 112/2/3
f 114/5/3 110/5/3 109/5/3
f 114/3/3 109/3/3 113/3/3
f 115/5/3 110/5/3 114/5/3
f 120/2/3 117/2/3 116/2/3
f 122/2/3 120/2/3 119/2/3
f 123/3/3 118/3/3 117/3/3
f 123/2/3 117/2/3 120/2/3
f 123/2/3 120/2/3 122/2/3
f 124/1/3 122/1/3 121/1/3
f 124/3/3 118/3/3 123/3/3
f 124/1/3 123/1/3 122/1/3
f 125/3/3 118/3/3 124/3/3
f 127/1/3 124/1/3 121/1/3
f 128/1/3 124/1/3 127/1/3
f 129/1/3 124/1/3 128/1/3
f 130/1/3 124/1/3 129/1/3
f 131/1/3 124/1/3 130/1/3
f 132/4/3 127/4/3 126/4/3
f 133/3/3 128/3/3 127/3/3
f 133/4/3 127/4/3 132/4/3
f 134/1/3 129/1/3 128/1/3
f 134/3/3 128/3/3 133/3/3
f 135/3/3 130/3/3 129/3/3
f 135/1/3 129/1/3 134/1/3
f 136/3/3 130/3/3 135/3/3
f 140/3/3 138/3/3 137/3/3
f 141/3/3 138/3/3 140/3/3
f 142/3/3 140/3/3 139/3/3
f 143/3/3 140/3/3 142/3/3
f 144/3/4 145/3/4 147/3/4
f 147/3/4 145/3/4 148/3/4
f 146/3/4 147/3/4 149/3/4
f 149/3/4 147/3/4 150/3/4
f 151/3/4 152/3/4 155/3/4
f 153/1/4 154/1/4 156/1/4
f 154/1/4 155/1/4 156/1/4
f 155/3/4 152/3/4 156/3/4
f 156/3/4 152/3/4 157/3/4
f 153/1/4 156/1/4 159/1/4
f 159/1/4 156/1/4 160/1/4
f 160/1/4 156/1/4 161/1/4
f 161/1/4 156/1/4 162/1/4
f 162/1/4 156/1/4 163/1/4
f 158/4/4 159/4/4 164/4/4
f 159/3/4 160/3/4 165/3/4
f 164/4/4 159/4/4 165/4/4
f 160/1/4 161/1/4 166/1/4
f 165/3/4 160/3/4 166/3/4
f 161/3/4 162/3/4 167/3/4
f 166/1/4 161/1/4 167/1/4
f 167/3/4 162/3/4 168/3/4
f 169/2/4 170/2/4 172/2/4
f 171/2/4 172/2/4 178/2/4
f 172/2/4 170/2/4 179/2/4
f 178/2/4 172/2/4 179/2/4
f 173/3/4 174/3/4 180/3/4
f 174/1/4 175/1/4 181/1/4
f 180/3/4 174/3/4 181/3/4
f 175/5/4 176/5/4 182/5/4
f 181/1/4 175/1/4 182/1/4
f 176/4/4 177/4/4 183/4/4
f 182/5/4 176/5/4 183/5/4
f 183/4/4 177/4/4 184/4/4
f 180/2/4 181/2/4 185/2/4
f 181/3/4 182/3/4 186/3/4
f 185/2/4 181/2/4 186/2/4
f 182/5/4 183/5/4 187/5/4
f 186/3/4 182/3/4 187/3/4
f 187/5/4 183/5/4 188/5/4
f 192/3/5 190/3/5 189/3/5
f 193/2/5 191/2/5 190/2/5
f 193/3/5 190/3/5 192/3/5
f 194/2/5 193/2/5 192/2/5
f 195/2/5 191/2/5 193/2/5
f 195/2/5 193/2/5 194/2/5
f 196/3/5 195/3/5 194/3/5
f 197/2/5 191/2/5 195/2/5
f 197/3/5 195/3/5 196/3/5
f 198/2/5 191/2/5 197/2/5
f 201/2/5 200/2/5 199/2/5
f 202/2/5 200/2/5 201/2/5
f 203/1/5 202/1/5 201/1/5
f 204/1/5 202/1/5 203/1/5
f 205/2/5 204/2/5 203/2/5
f 206/2/5 204/2/5 205/2/5
f 209/2/5 208/2/5 207/2/5
f 210/2/5 208/2/5 209/2/5
f 211/1/5 210/1/5 209/1/5
f 212/1/5 210/1/5 211/1/5
f 213/2/5 212/2/5 211/2/5
f 214/2/5 212/2/5 213/2/5
f 215/5/6 216/5/6 217/5/6
f 217/5/6 216/5/6 218/5/6
f 219/5/6 220/5/6 221/5/6
f 221/5/6 220/5/6 222/5/6
f 223/4/6 224/4/6 225/4/6
f 225/4/6 224/4/6 226/4/6
f 227/4/6 228/4/6 229/4/6
f 229/4/6 228/4/6 230/4/6
f 231/3/6 232/3/6 233/3/6
f 233/3/6 232/3/6 234/3/6
f 235/3/6 236/3/6 237/3/6
f 237/3/6 236/3/6 238/3/6
f 239/1/6 240/1/6 241/1/6
f 241/1/6 240/1/6 242/1/6
f 242/3/6 243/3/6 245/3/6
f 245/3/6 243/3/6 246/3/6
f 244/1/6 245/1/6 249/1/6
f 249/1/6 245/1/6 250/1/6
f 247/2/6 248/2/6 251/2/6
f 251/2/6 248/2/6 252/2/6
f 253/3/6 254/3/6 255/3/6
f 253/3/6 255/3/6 257/3/6
f 255/3/6 256/3/6 257/3/6
f 257/3/6 256/3/6 258/3/6
f 253/3/6 257/3/6 259/3/6
f 259/3/6 257/3/6 260/3/6
